<svg width="70" height="70" viewBox="0 0 43 43" fill="none" xmlns="http://www.w3.org/2000/svg">
<circle cx="21.5" cy="21.5" r="21" fill="#F3F3F3" stroke="black"/>
<path d="M25.9553 14.5961C25.9553 16.9261 23.9653 18.7861 21.5953 18.5761C19.4953 18.3961 17.9553 16.4961 17.9553 14.3861V13.2061C17.9553 11.0961 19.4953 9.19612 21.5953 9.01612C23.9653 8.80612 25.9553 10.6761 25.9553 12.9961V14.5961Z" stroke="black" stroke-miterlimit="10" stroke-linecap="round" stroke-linejoin="round"/>
<path d="M24.0553 22.2861L22.7153 23.8861C22.3153 24.3661 21.5853 24.3661 21.1853 23.8861L19.8453 22.2861C19.2853 21.6161 18.3553 21.3661 17.5553 21.7161C13.9853 23.2661 11.4053 26.6561 11.0053 30.6861C10.9453 31.2761 11.4053 31.7961 12.0053 31.7961H31.8953C32.4953 31.7961 32.9553 31.2761 32.8953 30.6861C32.4853 26.6561 29.9053 23.2661 26.3453 21.7161C25.5453 21.3661 24.6153 21.6161 24.0553 22.2861Z" stroke="black" stroke-miterlimit="10" stroke-linecap="round" stroke-linejoin="round"/>
</svg>
