
<svg width="70" height="70" viewBox="0 0 43 43" fill="none" xmlns="http://www.w3.org/2000/svg">
<circle cx="21.5" cy="21.5" r="21" fill="#F3F3F3" stroke="black"/>
<path d="M28.9079 15.89C28.9079 17.61 27.5679 19 25.9079 19C24.2479 19 22.9079 17.61 22.9079 15.89V14.11C22.9079 12.39 24.2479 11 25.9079 11C27.5679 11 28.9079 12.39 28.9079 14.11V15.89Z" stroke="black" stroke-miterlimit="10" stroke-linecap="round" stroke-linejoin="round"/>
<path d="M17.9079 16.5C19.2886 16.5 20.4079 15.3807 20.4079 14C20.4079 12.6193 19.2886 11.5 17.9079 11.5C16.5272 11.5 15.4079 12.6193 15.4079 14C15.4079 15.3807 16.5272 16.5 17.9079 16.5Z" stroke="black" stroke-miterlimit="10" stroke-linecap="round" stroke-linejoin="round"/>
<path d="M20.4279 22.14C19.4379 21.42 18.2279 21 16.9079 21C13.9879 21 11.5579 23.09 11.0179 25.85C10.8979 26.45 11.3979 27 12.0079 27H16.9079" stroke="black" stroke-miterlimit="10" stroke-linecap="round" stroke-linejoin="round"/>
<path d="M25.9079 22C21.8779 22 18.5379 24.98 17.9879 28.86C17.8979 29.46 18.3779 30 18.9879 30H32.8279C33.4379 30 33.9079 29.46 33.8279 28.86C33.2779 24.98 29.9379 22 25.9079 22Z" stroke="black" stroke-miterlimit="10" stroke-linecap="round" stroke-linejoin="round"/>
</svg>